cl__1 = 0.9736359999999999;
cl__2 = 0.736333;
cl__3 = 0.816317;
cl__4 = 0.205279;
cl__5 = 0.41573;
cl__6 = 0.151451;
cl__7 = 0.664276;
cl__8 = 0.376834;
cl__9 = 0.5779609999999999;
cl__10 = 0.707369;
cl__11 = 0.0720249;
cl__12 = 0.279669;
cl__13 = 0.715002;
cl__14 = 0.447206;
cl__15 = 0.559265;
cl__16 = 0.469735;
cl__17 = 0.222792;
cl__18 = 0.797054;
cl__19 = 0.671807;
cl__20 = 0.286975;
cl__21 = 0.3524;
cl__22 = 0.480609;
cl__23 = 0.229978;
cl__24 = 0.453766;
cl__25 = 0.838302;
cl__26 = 0.514934;
cl__27 = 0.457501;
cl__28 = 0.838434;
cl__29 = 0.405562;
cl__30 = 1.02969;
cl__31 = 0.626163;
cl__32 = 0.788732;
cl__33 = 0.004463;
cl__34 = 0.00737532;
cl__35 = 0.404319;
cl__36 = 0.435239;
cl__37 = 0.310927;
cl__38 = 0.314694;
cl__39 = 0.220339;
cl__40 = 0.0441306;
cl__41 = 0.767382;
cl__42 = 0.428723;
cl__43 = 0.642524;
cl__44 = 0.07049619999999999;
cl__45 = 1.0297;
cl__46 = 1.04374;
cl__47 = 0.513532;
cl__48 = 0.9966120000000001;
cl__49 = 0.0304222;
cl__50 = 0.526361;
cl__51 = 0.235817;
cl__52 = 0.29534;
cl__53 = 0.347198;
cl__54 = 0.553386;
cl__55 = 1e+22;
cl__56 = 0.676155;
cl__57 = 0.581668;
cl__58 = 0.479404;
cl__59 = 0.589578;
cl__60 = 0.718208;
cl__61 = 0.407236;
cl__62 = 0.6104349999999999;
cl__63 = 0.612283;
cl__64 = 1.22518;
cl__65 = 0.9481889999999999;
cl__66 = 0.369678;
cl__67 = 0.09314939999999999;
cl__68 = 1.19127;
cl__69 = 0.720082;
cl__70 = 0.5232019999999999;
cl__71 = 0.451113;
cl__72 = 0.0281061;
cl__73 = 0.244311;
cl__74 = 0.0149353;
cl__75 = 0.463377;
cl__76 = 0.6405920000000001;
cl__77 = 0.903218;
cl__78 = 0.0421297;
cl__79 = 0.83049;
cl__80 = 0.083247;
cl__81 = 0.459116;
cl__82 = 0.786177;
cl__83 = 0.667902;
cl__84 = 0.775578;
cl__85 = 0.5463209999999999;
cl__86 = 0.0272396;
cl__87 = 0.465464;
cl__88 = 0.015869;
cl__89 = 0.260883;
cl__90 = 0.676998;
cl__91 = 0.675831;
cl__92 = 0.548067;
cl__93 = 0.434256;
cl__94 = 0.876202;
cl__95 = 0.797758;
cl__96 = 1.09622;
cl__97 = 0.26718;
cl__98 = 0.997466;
cl__99 = 0.445408;
cl__100 = 0.0221398;
cl__101 = 0.44009;
cl__102 = 0.34194;
cl__103 = 0.09604310000000001;
cl__104 = 0.439712;
cl__105 = 0.685616;
cl__106 = 0.693137;
cl__107 = 0.612017;
cl__108 = 1.12659;
cl__109 = 0.883852;
cl__110 = 1.03445;
cl__111 = 0.494632;
cl__112 = 0.461471;
cl__113 = 0.832075;
cl__114 = 0.792026;
cl__115 = 0.681868;
Point(0) = {0, 0, 0, cl__1};
Point(1) = {1.11305, 0, -5.551119999999999e-17, cl__2};
Point(2) = {0, 0.9736359999999999, -5.551119999999999e-17, cl__3};
Point(3) = {1.02914, 0, 1.22794, cl__4};
Point(4) = {0.5457109999999999, 0.685972, 1.13586, cl__5};
Point(5) = {0.147701, 0, 1.75387, cl__6};
Point(6) = {0.879822, 0.6166970000000001, 0.898369, cl__5};
Point(7) = {0.9154060000000001, 0.7093120000000001, -5.551119999999999e-17, cl__2};
Point(8) = {0, 0.88075, 0.811015, cl__7};
Point(9) = {0, 0, 1.72038, cl__6};
Point(10) = {0.8738860000000001, 0, 1.36224, cl__4};
Point(11) = {0.419812, 0.209726, 1.59903, cl__8};
Point(12) = {1.11305, -5.551119999999999e-17, 0, cl__2};
Point(13) = {1.97365, 5.551119999999999e-17, 0.882953, cl__9};
Point(14) = {0.9154060000000001, 0.7093120000000001, 0, cl__2};
Point(15) = {2.17241, 0.662633, 0, cl__10};
Point(16) = {1.52613, 0.0714462, 1.30551, cl__11};
Point(17) = {1.02914, 5.551119999999999e-17, 1.22794, cl__12};
Point(18) = {0.879822, 0.6166970000000001, 0.898369, cl__13};
Point(19) = {1.89235, 0.743286, 1.06551, cl__14};
Point(20) = {1.92485, 0, 0, cl__10};
Point(21) = {2.16786, 0.534826, 0.781547, cl__14};
Point(22) = {1.54855, 1.10577, 0.814165, cl__15};
Point(23) = {1.59508, 1.20002, 0, cl__16};
Point(24) = {1.30198, 5.551119999999999e-17, 1.28935, cl__17};
Point(25) = {1.52466, 5.551119999999999e-17, 1.29652, cl__11};
Point(26) = {1.92485, 0, 0, cl__10};
Point(27) = {3, 0, 0, cl__18};
Point(28) = {2.17241, 0.662633, 0, cl__10};
Point(29) = {2.16786, 0.534826, 0.781547, cl__9};
Point(30) = {1.97365, 0, 0.882953, cl__9};
Point(31) = {3, 0, 1.06035, cl__19};
Point(32) = {3, 0.651384, 0.89596, cl__19};
Point(33) = {3, 0.797054, 0, cl__18};
Point(34) = {1.11022e-16, 0.88075, 0.811015, cl__7};
Point(35) = {0.780506, 1.83052, 1.19404, cl__20};
Point(36) = {-1.11022e-16, 2.39474, 0, cl__21};
Point(37) = {0, 0.9736359999999999, 0, cl__3};
Point(38) = {0.879822, 0.6166970000000001, 0.898369, cl__5};
Point(39) = {1.11022e-16, 2.10324, 0.729816, cl__22};
Point(40) = {1.54855, 1.10577, 0.814165, cl__23};
Point(41) = {1.60636, 1.66962, 0, cl__24};
Point(42) = {0.9154060000000001, 0.7093120000000001, 0, cl__25};
Point(43) = {0.949413, 1.36115, 1.32175, cl__26};
Point(44) = {0.5457109999999999, 0.685972, 1.13586, cl__5};
Point(45) = {0.924446, 1.99457, 1.00769, cl__20};
Point(46) = {-1.11022e-16, 2.40073, 0.352349, cl__21};
Point(47) = {1.56831, 1.69891, 0.712892, cl__27};
Point(48) = {1.54657, 1.30044, 0.936609, cl__23};
Point(49) = {3, 0.797054, 0, cl__28};
Point(50) = {3, 1.96921, 1.03495, cl__29};
Point(51) = {1.59508, 1.20002, -1.11022e-16, cl__16};
Point(52) = {3, 1.82674, 0, cl__30};
Point(53) = {3, 0.651384, 0.89596, cl__31};
Point(54) = {2.17241, 0.662633, -1.11022e-16, cl__32};
Point(55) = {1.54657, 1.30044, 0.936609, cl__23};
Point(56) = {1.98957, 2.09936, 0.98678, cl__33};
Point(57) = {2.16786, 0.534826, 0.781547, cl__14};
Point(58) = {2.00686, 2.09848, 1.00892, cl__34};
Point(59) = {1.89235, 0.743286, 1.06551, cl__35};
Point(60) = {3, 1.03265, 1.39266, cl__31};
Point(61) = {1.94484, 1.97184, -1.11022e-16, cl__24};
Point(62) = {1.54855, 1.10577, 0.814165, cl__23};
Point(63) = {3, 1.72496, 1.35872, cl__29};
Point(64) = {2.13623, 1.83919, 1.33368, cl__36};
Point(65) = {2.01258, 2.10086, 1.00492, cl__34};
Point(66) = {1.99149, 2.10074, 0.982994, cl__33};
Point(67) = {1.56831, 1.69891, 0.712892, cl__27};
Point(68) = {1.60636, 1.66962, -1.11022e-16, cl__24};
Point(69) = {1.86227, 1.26057, 1.35589, cl__37};
Point(70) = {2.00095, 0.982783, 1.37263, cl__37};
Point(71) = {0, 2.39474, 0, cl__21};
Point(72) = {1.99149, 2.10074, 0.982994, cl__33};
Point(73) = {0, 3, 0, cl__38};
Point(74) = {1.35044, 3, 1.23474, cl__39};
Point(75) = {0, 2.40073, 0.352349, cl__21};
Point(76) = {1.48315, 2.50684, 1.35614, cl__40};
Point(77) = {0, 3, 0.314694, cl__38};
Point(78) = {0.924446, 1.99457, 1.00769, cl__41};
Point(79) = {1.88857, 3, 0, cl__42};
Point(80) = {1.91196, 3, 0.428085, cl__42};
Point(81) = {1.94484, 1.97184, 0, cl__24};
Point(82) = {1.98957, 2.09936, 0.98678, cl__33};
Point(83) = {1.56831, 1.69891, 0.712892, cl__43};
Point(84) = {1.5268, 2.50452, 1.35008, cl__40};
Point(85) = {1.48644, 2.57723, 1.35396, cl__44};
Point(86) = {1.94484, 1.97184, 0, cl__45};
Point(87) = {1.88857, 3, 0, cl__42};
Point(88) = {3, 3, 0, cl__46};
Point(89) = {2.48672, 3, 1.02755, cl__47};
Point(90) = {3, 1.96921, 1.03495, cl__48};
Point(91) = {1.91196, 3, 0.428085, cl__42};
Point(92) = {3, 3, 1.04374, cl__47};
Point(93) = {1.99149, 2.10074, 0.982994, cl__49};
Point(94) = {2.01258, 2.10086, 1.00492, cl__49};
Point(95) = {1.54657, 1.30044, 0.936609, cl__50};
Point(96) = {1.86227, 1.26057, 1.35589, cl__37};
Point(97) = {1.52613, 0.0714462, 1.30551, cl__51};
Point(98) = {1.48776, 1.03477, 2.04456, cl__52};
Point(99) = {0.8738860000000001, 1.11022e-16, 1.36224, cl__4};
Point(100) = {1.30198, 1.11022e-16, 1.28935, cl__51};
Point(101) = {1.02914, 1.11022e-16, 1.22794, cl__4};
Point(102) = {1.08249, 1.33981, 1.86146, cl__53};
Point(103) = {0.419812, 0.209726, 1.59903, cl__54};
Point(104) = {0.949413, 1.36115, 1.32175, cl__26};
Point(105) = {0.879822, 0.6166970000000001, 0.898369, cl__55};
Point(106) = {0.5457109999999999, 0.685972, 1.13586, cl__56};
Point(107) = {0.847546, 0.824361, 1.99357, cl__57};
Point(108) = {1.85265, 0.741572, 1.75948, cl__58};
Point(109) = {1.89235, 0.743286, 1.06551, cl__35};
Point(110) = {1.54855, 1.10577, 0.814165, cl__55};
Point(111) = {2.00095, 0.982783, 1.37263, cl__37};
Point(112) = {1.41873, 1.30195, 1.9393, cl__52};
Point(113) = {2.1326, 0, 2.01519, cl__59};
Point(114) = {3, 0, 1.06035, cl__19};
Point(115) = {3, 0, 1.89131, cl__60};
Point(116) = {1.85265, 0.741572, 1.75948, cl__61};
Point(117) = {1.97365, 0, 0.882953, cl__62};
Point(118) = {2.16786, 0.534826, 0.781547, cl__55};
Point(119) = {3, 0.7177210000000001, 1.91774, cl__63};
Point(120) = {1.52613, 0.0714462, 1.30551, cl__11};
Point(121) = {1.52466, 0, 1.29652, cl__11};
Point(122) = {2.1039, 0.588315, 2.04095, cl__61};
Point(123) = {3, 0.651384, 0.89596, cl__31};
Point(124) = {2.00095, 0.982783, 1.37263, cl__58};
Point(125) = {3, 1.03265, 1.39266, cl__63};
Point(126) = {0.5457109999999999, 0.685972, 1.13586, cl__55};
Point(127) = {0, 0.88075, 0.811015, cl__64};
Point(128) = {0, 2.10324, 0.729816, cl__65};
Point(129) = {0.780506, 1.83052, 1.19404, cl__26};
Point(130) = {0, 0, 2.09276, cl__66};
Point(131) = {0.883335, 1.94349, 2.05707, cl__67};
Point(132) = {0, 1.42822, 2.66809, cl__68};
Point(133) = {0.949414, 1.90344, 2.00505, cl__67};
Point(134) = {0, 2.28317, 1.69884, cl__69};
Point(135) = {0, 0.213392, 2.57046, cl__70};
Point(136) = {0.847546, 0.824361, 1.99357, cl__57};
Point(137) = {0.147701, 0, 1.75387, cl__6};
Point(138) = {0.419812, 0.209726, 1.59903, cl__8};
Point(139) = {1.48506, 1.72177, 2.09048, cl__71};
Point(140) = {0.949413, 1.36115, 1.32175, cl__55};
Point(141) = {1.54657, 1.30044, 0.936609, cl__55};
Point(142) = {1.98957, 2.09936, 0.98678, cl__72};
Point(143) = {1.08249, 1.33981, 1.86146, cl__53};
Point(144) = {1.74308, 2.40412, 1.40328, cl__73};
Point(145) = {0.949414, 1.90344, 2.00505, cl__74};
Point(146) = {1.56831, 1.69891, 0.712892, cl__55};
Point(147) = {0.780506, 1.83052, 1.19404, cl__20};
Point(148) = {2.00686, 2.09848, 1.00892, cl__72};
Point(149) = {0.924446, 1.99457, 1.00769, cl__20};
Point(150) = {0.959556, 1.91282, 2.01074, cl__74};
Point(151) = {1.48315, 2.50684, 1.35614, cl__40};
Point(152) = {1.5268, 2.50452, 1.35008, cl__40};
Point(153) = {2.13623, 1.83919, 1.33368, cl__36};
Point(154) = {1.94136, 2.04966, 1.69762, cl__75};
Point(155) = {1.86227, 1.26057, 1.35589, cl__76};
Point(156) = {1.41873, 1.30195, 1.9393, cl__53};
Point(157) = {1.42828, 3, 1.44087, cl__39};
Point(158) = {1.35044, 3, 1.23474, cl__39};
Point(159) = {1.48644, 2.57723, 1.35396, cl__44};
Point(160) = {0, 3, 1.76721, cl__69};
Point(161) = {0.949414, 1.90344, 2.00505, cl__74};
Point(162) = {0, 2.40073, 0.352349, cl__22};
Point(163) = {0.873063, 3, 2.15329, cl__77};
Point(164) = {0, 2.10324, 0.729816, cl__22};
Point(165) = {0.883335, 1.94349, 2.05707, cl__78};
Point(166) = {0.959556, 1.91282, 2.01074, cl__74};
Point(167) = {0.912683, 1.96947, 2.07253, cl__78};
Point(168) = {1.91196, 3, 0.428085, cl__79};
Point(169) = {2.01258, 2.10086, 1.00492, cl__34};
Point(170) = {2.00686, 2.09848, 1.00892, cl__34};
Point(171) = {2.48672, 3, 1.02755, cl__79};
Point(172) = {1.5268, 2.50452, 1.35008, cl__80};
Point(173) = {1.98957, 2.09936, 0.98678, cl__55};
Point(174) = {1.99149, 2.10074, 0.982994, cl__55};
Point(175) = {1.74308, 2.40412, 1.40328, cl__73};
Point(176) = {1.85961, 3, 1.59816, cl__81};
Point(177) = {1.48644, 2.57723, 1.35396, cl__80};
Point(178) = {3, 1.72496, 1.35872, cl__29};
Point(179) = {1.85961, 3, 1.59816, cl__81};
Point(180) = {2.48672, 3, 1.02755, cl__47};
Point(181) = {3, 2.1149, 2.13897, cl__82};
Point(182) = {2.22449, 3, 2.15758, cl__83};
Point(183) = {3, 3, 2.16792, cl__84};
Point(184) = {2.01258, 2.10086, 1.00492, cl__55};
Point(185) = {2.2217, 2.22572, 2.13222, cl__85};
Point(186) = {2.13623, 1.83919, 1.33368, cl__75};
Point(187) = {2.00686, 2.09848, 1.00892, cl__55};
Point(188) = {0.0221398, 0, 3, cl__86};
Point(189) = {0, 0.213392, 2.57046, cl__87};
Point(190) = {1.85265, 0.741572, 1.75948, cl__61};
Point(191) = {0, 0, 2.98413, cl__88};
Point(192) = {1.85185, 0.676525, 3, cl__89};
Point(193) = {1.87716, 0, 3, cl__90};
Point(194) = {2.1326, -2.77556e-17, 2.01519, cl__59};
Point(195) = {1.30198, -5.551119999999999e-17, 1.28935, cl__17};
Point(196) = {2.1039, 0.588315, 2.04095, cl__61};
Point(197) = {0.847546, 0.824361, 1.99357, cl__91};
Point(198) = {0.419812, 0.209726, 1.59903, cl__55};
Point(199) = {1.48776, 1.03477, 2.04456, cl__92};
Point(200) = {1.90368, 0.80862, 2.78109, cl__89};
Point(201) = {1.52613, 0.0714462, 1.30551, cl__55};
Point(202) = {1.52466, -5.551119999999999e-17, 1.29652, cl__17};
Point(203) = {0.8738860000000001, -5.551119999999999e-17, 1.36224, cl__93};
Point(204) = {0.147701, 0, 1.75387, cl__66};
Point(205) = {2.1326, 0, 2.01519, cl__94};
Point(206) = {2.1039, 0.588315, 2.04095, cl__95};
Point(207) = {3, 0.7177210000000001, 1.91774, cl__63};
Point(208) = {3, 0, 3, cl__96};
Point(209) = {2.02052, 0.907671, 3, cl__97};
Point(210) = {3, 1.09622, 3, cl__98};
Point(211) = {1.90368, 0.80862, 2.78109, cl__89};
Point(212) = {1.85185, 0.676525, 3, cl__89};
Point(213) = {1.98922, 1.67396, 3, cl__99};
Point(214) = {1.48776, 1.03477, 2.04456, cl__52};
Point(215) = {0, 0, 3, cl__88};
Point(216) = {0.0221398, 0, 3, cl__100};
Point(217) = {1.08249, 1.33981, 1.86146, cl__55};
Point(218) = {1.16441, 2.38915, 3, cl__101};
Point(219) = {0, 1.51043, 3, cl__102};
Point(220) = {0, 1.42822, 2.66809, cl__102};
Point(221) = {0.912683, 1.96947, 2.07253, cl__78};
Point(222) = {0.883335, 1.94349, 2.05707, cl__78};
Point(223) = {1.41873, 1.30195, 1.9393, cl__52};
Point(224) = {0.847546, 0.824361, 1.99357, cl__55};
Point(225) = {1.90368, 0.80862, 2.78109, cl__97};
Point(226) = {2.02052, 0.907671, 3, cl__97};
Point(227) = {0.959556, 1.91282, 2.01074, cl__103};
Point(228) = {0.949414, 1.90344, 2.00505, cl__55};
Point(229) = {1.80113, 1.91663, 2.67731, cl__99};
Point(230) = {1.56562, 2.20829, 3, cl__101};
Point(231) = {3, 1.09622, 3, cl__104};
Point(232) = {1.86227, 1.26057, 1.35589, cl__55};
Point(233) = {1.98922, 1.67396, 3, cl__99};
Point(234) = {2.2217, 2.22572, 2.13222, cl__85};
Point(235) = {3, 1.53593, 3, cl__104};
Point(236) = {2.1039, 0.588315, 2.04095, cl__55};
Point(237) = {3, 2.1149, 2.13897, cl__82};
Point(238) = {2.00095, 0.982783, 1.37263, cl__55};
Point(239) = {1.48506, 1.72177, 2.09048, cl__105};
Point(240) = {1.80113, 1.91663, 2.67731, cl__99};
Point(241) = {3, 1.72496, 1.35872, cl__106};
Point(242) = {3, 1.03265, 1.39266, cl__63};
Point(243) = {0, 2.28317, 1.69884, cl__69};
Point(244) = {1.16441, 2.38915, 3, cl__107};
Point(245) = {0, 3, 1.76721, cl__69};
Point(246) = {1.12659, 3, 3, cl__107};
Point(247) = {0, 1.42822, 2.66809, cl__102};
Point(248) = {0, 1.51043, 3, cl__102};
Point(249) = {0, 3, 3, cl__108};
Point(250) = {0.873063, 3, 2.15329, cl__109};
Point(251) = {0.883335, 1.94349, 2.05707, cl__55};
Point(252) = {0.912683, 1.96947, 2.07253, cl__110};
Point(253) = {1.74308, 2.40412, 1.40328, cl__55};
Point(254) = {1.5268, 2.50452, 1.35008, cl__55};
Point(255) = {1.80113, 1.91663, 2.67731, cl__111};
Point(256) = {1.12659, 3, 3, cl__112};
Point(257) = {1.58806, 3, 3, cl__112};
Point(258) = {1.42828, 3, 1.44087, cl__81};
Point(259) = {0.959556, 1.91282, 2.01074, cl__55};
Point(260) = {0.912683, 1.96947, 2.07253, cl__55};
Point(261) = {1.16441, 2.38915, 3, cl__101};
Point(262) = {1.48506, 1.72177, 2.09048, cl__55};
Point(263) = {1.94136, 2.04966, 1.69762, cl__55};
Point(264) = {1.48315, 2.50684, 1.35614, cl__55};
Point(265) = {1.48644, 2.57723, 1.35396, cl__55};
Point(266) = {3, 3, 3, cl__113};
Point(267) = {1.80113, 1.91663, 2.67731, cl__55};
Point(268) = {1.58806, 3, 3, cl__114};
Point(269) = {1.98922, 1.67396, 3, cl__115};
Point(270) = {1.56562, 2.20829, 3, cl__115};
Point(271) = {2.2217, 2.22572, 2.13222, cl__55};
Point(272) = {2.22449, 3, 2.15758, cl__84};
Line(1) = {1, 3};
Line(2) = {3, 6};
Line(3) = {6, 7};
Line(4) = {7, 1};
Line(5) = {1, 0};
Line(6) = {0, 9};
Line(7) = {9, 5};
Line(8) = {5, 10};
Line(9) = {10, 3};
Line(10) = {7, 2};
Line(11) = {2, 0};
Line(12) = {6, 4};
Line(13) = {4, 8};
Line(14) = {8, 2};
Line(15) = {8, 9};
Line(16) = {10, 11};
Line(17) = {11, 4};
Line(18) = {11, 5};
Line(19) = {13, 25};
Line(20) = {25, 16};
Line(21) = {16, 19};
Line(22) = {19, 21};
Line(23) = {21, 13};
Line(24) = {13, 20};
Line(25) = {20, 12};
Line(26) = {12, 17};
Line(27) = {17, 24};
Line(28) = {24, 25};
Line(29) = {21, 15};
Line(30) = {15, 20};
Line(31) = {14, 23};
Line(32) = {23, 22};
Line(33) = {22, 18};
Line(34) = {18, 14};
Line(35) = {14, 12};
Line(36) = {15, 23};
Line(37) = {19, 22};
Line(38) = {24, 16};
Line(39) = {17, 18};
Line(40) = {27, 33};
Line(41) = {33, 28};
Line(42) = {28, 26};
Line(43) = {26, 27};
Line(44) = {27, 31};
Line(45) = {31, 32};
Line(46) = {32, 33};
Line(47) = {26, 30};
Line(48) = {30, 31};
Line(49) = {32, 29};
Line(50) = {29, 28};
Line(51) = {30, 29};
Line(52) = {23, 40};
Line(53) = {40, 48};
Line(54) = {48, 47};
Line(55) = {47, 41};
Line(56) = {41, 23};
Line(57) = {41, 36};
Line(58) = {36, 37};
Line(59) = {37, 42};
Line(60) = {42, 23};
Line(61) = {35, 39};
Line(62) = {39, 46};
Line(63) = {46, 45};
Line(64) = {45, 35};
Line(65) = {35, 43};
Line(66) = {43, 44};
Line(67) = {44, 34};
Line(68) = {34, 39};
Line(69) = {45, 47};
Line(70) = {48, 43};
Line(71) = {46, 36};
Line(72) = {34, 37};
Line(73) = {38, 44};
Line(74) = {40, 38};
Line(75) = {50, 63};
Line(76) = {63, 64};
Line(77) = {64, 58};
Line(78) = {58, 65};
Line(79) = {65, 50};
Line(80) = {50, 52};
Line(81) = {52, 49};
Line(82) = {49, 53};
Line(83) = {53, 60};
Line(84) = {60, 63};
Line(85) = {65, 66};
Line(86) = {66, 61};
Line(87) = {61, 52};
Line(88) = {51, 54};
Line(89) = {54, 49};
Line(90) = {61, 68};
Line(91) = {68, 51};
Line(92) = {53, 57};
Line(93) = {57, 59};
Line(94) = {59, 70};
Line(95) = {70, 60};
Line(96) = {55, 69};
Line(97) = {69, 70};
Line(98) = {59, 62};
Line(99) = {62, 55};
Line(100) = {55, 67};
Line(101) = {67, 56};
Line(102) = {56, 58};
Line(103) = {64, 69};
Line(104) = {56, 66};
Line(105) = {67, 68};
Line(106) = {72, 80};
Line(107) = {80, 79};
Line(108) = {79, 81};
Line(109) = {81, 72};
Line(110) = {72, 82};
Line(111) = {82, 84};
Line(112) = {84, 85};
Line(113) = {85, 74};
Line(114) = {74, 80};
Line(115) = {73, 71};
Line(116) = {71, 41};
Line(117) = {41, 81};
Line(118) = {79, 73};
Line(119) = {73, 77};
Line(120) = {77, 75};
Line(121) = {75, 71};
Line(122) = {74, 77};
Line(123) = {85, 76};
Line(124) = {76, 78};
Line(125) = {78, 75};
Line(126) = {84, 76};
Line(127) = {82, 83};
Line(128) = {83, 78};
Line(129) = {52, 88};
Line(130) = {88, 87};
Line(131) = {87, 86};
Line(132) = {86, 52};
Line(133) = {52, 90};
Line(134) = {90, 92};
Line(135) = {92, 88};
Line(136) = {92, 89};
Line(137) = {89, 91};
Line(138) = {91, 87};
Line(139) = {89, 94};
Line(140) = {94, 93};
Line(141) = {93, 91};
Line(142) = {90, 94};
Line(143) = {96, 111};
Line(144) = {111, 108};
Line(145) = {108, 98};
Line(146) = {98, 112};
Line(147) = {112, 96};
Line(148) = {112, 102};
Line(149) = {102, 104};
Line(150) = {104, 95};
Line(151) = {95, 96};
Line(152) = {97, 108};
Line(153) = {111, 109};
Line(154) = {109, 97};
Line(155) = {97, 100};
Line(156) = {100, 99};
Line(157) = {99, 103};
Line(158) = {103, 107};
Line(159) = {107, 98};
Line(160) = {107, 102};
Line(161) = {100, 101};
Line(162) = {101, 99};
Line(163) = {103, 106};
Line(164) = {106, 104};
Line(165) = {114, 115};
Line(166) = {115, 119};
Line(167) = {119, 125};
Line(168) = {125, 123};
Line(169) = {123, 114};
Line(170) = {114, 117};
Line(171) = {117, 121};
Line(172) = {121, 113};
Line(173) = {113, 115};
Line(174) = {113, 122};
Line(175) = {122, 119};
Line(176) = {116, 124};
Line(177) = {124, 125};
Line(178) = {122, 116};
Line(179) = {121, 120};
Line(180) = {120, 116};
Line(181) = {127, 128};
Line(182) = {128, 134};
Line(183) = {134, 132};
Line(184) = {132, 135};
Line(185) = {135, 130};
Line(186) = {130, 9};
Line(187) = {9, 127};
Line(188) = {128, 129};
Line(189) = {129, 133};
Line(190) = {133, 131};
Line(191) = {131, 134};
Line(192) = {129, 104};
Line(193) = {102, 133};
Line(194) = {135, 136};
Line(195) = {136, 138};
Line(196) = {138, 137};
Line(197) = {137, 130};
Line(198) = {137, 9};
Line(199) = {102, 136};
Line(200) = {132, 131};
Line(201) = {142, 148};
Line(202) = {148, 144};
Line(203) = {144, 152};
Line(204) = {152, 142};
Line(205) = {143, 145};
Line(206) = {145, 150};
Line(207) = {150, 139};
Line(208) = {139, 156};
Line(209) = {156, 143};
Line(210) = {144, 154};
Line(211) = {154, 139};
Line(212) = {150, 151};
Line(213) = {151, 152};
Line(214) = {148, 153};
Line(215) = {153, 154};
Line(216) = {145, 147};
Line(217) = {147, 149};
Line(218) = {149, 151};
Line(219) = {153, 155};
Line(220) = {155, 156};
Line(221) = {157, 159};
Line(222) = {159, 76};
Line(223) = {76, 166};
Line(224) = {166, 167};
Line(225) = {167, 163};
Line(226) = {163, 157};
Line(227) = {157, 158};
Line(228) = {158, 159};
Line(229) = {163, 160};
Line(230) = {160, 77};
Line(231) = {77, 158};
Line(232) = {160, 134};
Line(233) = {134, 164};
Line(234) = {164, 162};
Line(235) = {162, 77};
Line(236) = {167, 165};
Line(237) = {165, 134};
Line(238) = {161, 165};
Line(239) = {166, 161};
Line(240) = {168, 171};
Line(241) = {171, 176};
Line(242) = {176, 157};
Line(243) = {157, 74};
Line(244) = {74, 168};
Line(245) = {169, 170};
Line(246) = {170, 175};
Line(247) = {175, 176};
Line(248) = {171, 169};
Line(249) = {172, 177};
Line(250) = {177, 157};
Line(251) = {175, 172};
Line(252) = {50, 178};
Line(253) = {178, 181};
Line(254) = {181, 183};
Line(255) = {183, 92};
Line(256) = {92, 50};
Line(257) = {179, 182};
Line(258) = {182, 185};
Line(259) = {185, 154};
Line(260) = {144, 179};
Line(261) = {179, 180};
Line(262) = {180, 92};
Line(263) = {183, 182};
Line(264) = {178, 186};
Line(265) = {186, 154};
Line(266) = {185, 181};
Line(267) = {189, 191};
Line(268) = {191, 130};
Line(269) = {130, 189};
Line(270) = {189, 197};
Line(271) = {197, 199};
Line(272) = {199, 200};
Line(273) = {200, 192};
Line(274) = {192, 188};
Line(275) = {188, 191};
Line(276) = {190, 196};
Line(277) = {196, 200};
Line(278) = {199, 190};
Line(279) = {188, 193};
Line(280) = {193, 194};
Line(281) = {194, 202};
Line(282) = {202, 195};
Line(283) = {195, 203};
Line(284) = {203, 204};
Line(285) = {204, 130};
Line(286) = {192, 193};
Line(287) = {196, 194};
Line(288) = {115, 208};
Line(289) = {208, 210};
Line(290) = {210, 207};
Line(291) = {207, 115};
Line(292) = {115, 205};
Line(293) = {205, 193};
Line(294) = {193, 208};
Line(295) = {206, 207};
Line(296) = {210, 209};
Line(297) = {209, 211};
Line(298) = {211, 206};
Line(299) = {193, 212};
Line(300) = {212, 209};
Line(301) = {212, 211};
Line(302) = {214, 225};
Line(303) = {225, 226};
Line(304) = {226, 213};
Line(305) = {213, 229};
Line(306) = {229, 139};
Line(307) = {139, 223};
Line(308) = {223, 214};
Line(309) = {189, 220};
Line(310) = {220, 219};
Line(311) = {219, 215};
Line(312) = {215, 191};
Line(313) = {192, 216};
Line(314) = {216, 215};
Line(315) = {219, 218};
Line(316) = {218, 230};
Line(317) = {230, 213};
Line(318) = {226, 192};
Line(319) = {216, 191};
Line(320) = {218, 221};
Line(321) = {221, 227};
Line(322) = {227, 139};
Line(323) = {229, 230};
Line(324) = {220, 222};
Line(325) = {222, 221};
Line(326) = {231, 235};
Line(327) = {235, 237};
Line(328) = {237, 241};
Line(329) = {241, 242};
Line(330) = {242, 207};
Line(331) = {207, 231};
Line(332) = {231, 209};
Line(333) = {209, 233};
Line(334) = {233, 235};
Line(335) = {233, 240};
Line(336) = {240, 234};
Line(337) = {234, 237};
Line(338) = {154, 234};
Line(339) = {240, 239};
Line(340) = {239, 154};
Line(341) = {244, 246};
Line(342) = {246, 250};
Line(343) = {250, 252};
Line(344) = {252, 244};
Line(345) = {244, 248};
Line(346) = {248, 249};
Line(347) = {249, 246};
Line(348) = {245, 249};
Line(349) = {248, 247};
Line(350) = {247, 243};
Line(351) = {243, 245};
Line(352) = {245, 250};
Line(353) = {255, 230};
Line(354) = {230, 257};
Line(355) = {257, 182};
Line(356) = {182, 234};
Line(357) = {234, 255};
Line(358) = {257, 256};
Line(359) = {256, 250};
Line(360) = {250, 258};
Line(361) = {258, 179};
Line(362) = {230, 261};
Line(363) = {261, 256};
Line(364) = {268, 266};
Line(365) = {266, 235};
Line(366) = {235, 269};
Line(367) = {269, 270};
Line(368) = {270, 268};
Line(369) = {268, 272};
Line(370) = {272, 183};
Line(371) = {183, 266};
Line(372) = {183, 237};
Curve Loop(1) = {1, 2, 3, 4};
Plane Surface(1) = {1};
Curve Loop(2) = {5, 6, 7, 8, 9, -1};
Plane Surface(2) = {2};
Curve Loop(3) = {-4, 10, 11, -5};
Plane Surface(3) = {3};
Curve Loop(4) = {-10, -3, 12, 13, 14};
Plane Surface(4) = {4};
Curve Loop(5) = {-14, 15, -6, -11};
Plane Surface(5) = {5};
Curve Loop(6) = {-9, 16, 17, -12, -2};
Plane Surface(6) = {6};
Curve Loop(7) = {-17, 18, -7, -15, -13};
Plane Surface(7) = {7};
Curve Loop(8) = {-18, -16, -8};
Plane Surface(8) = {8};
Curve Loop(9) = {19, 20, 21, 22, 23};
Plane Surface(9) = {9};
Curve Loop(10) = {24, 25, 26, 27, 28, -19};
Plane Surface(10) = {10};
Curve Loop(11) = {-23, 29, 30, -24};
Plane Surface(11) = {11};
Curve Loop(12) = {31, 32, 33, 34};
Plane Surface(12) = {12};
Curve Loop(13) = {35, -25, -30, 36, -31};
Plane Surface(13) = {13};
Curve Loop(14) = {-29, -22, 37, -32, -36};
Plane Surface(14) = {14};
Curve Loop(15) = {-20, -28, 38};
Plane Surface(15) = {15};
Curve Loop(16) = {-38, -27, 39, -33, -37, -21};
Plane Surface(16) = {16};
Curve Loop(17) = {40, 41, 42, 43};
Plane Surface(17) = {17};
Curve Loop(18) = {44, 45, 46, -40};
Plane Surface(18) = {18};
Curve Loop(19) = {-43, 47, 48, -44};
Plane Surface(19) = {19};
Curve Loop(20) = {-41, -46, 49, 50};
Plane Surface(20) = {20};
Curve Loop(21) = {-49, -45, -48, 51};
Plane Surface(21) = {21};
Curve Loop(22) = {52, 53, 54, 55, 56};
Plane Surface(22) = {22};
Curve Loop(23) = {-56, 57, 58, 59, 60};
Plane Surface(23) = {23};
Curve Loop(24) = {61, 62, 63, 64};
Plane Surface(24) = {24};
Curve Loop(25) = {65, 66, 67, 68, -61};
Plane Surface(25) = {25};
Curve Loop(26) = {-64, 69, -54, 70, -65};
Plane Surface(26) = {26};
Curve Loop(27) = {-57, -55, -69, -63, 71};
Plane Surface(27) = {27};
Curve Loop(28) = {-71, -62, -68, 72, -58};
Plane Surface(28) = {28};
Curve Loop(29) = {73, -66, -70, -53, 74};
Plane Surface(29) = {29};
Curve Loop(30) = {75, 76, 77, 78, 79};
Plane Surface(30) = {30};
Curve Loop(31) = {80, 81, 82, 83, 84, -75};
Plane Surface(31) = {31};
Curve Loop(32) = {-79, 85, 86, 87, -80};
Plane Surface(32) = {32};
Curve Loop(33) = {88, 89, -81, -87, 90, 91};
Plane Surface(33) = {33};
Curve Loop(34) = {92, 93, 94, 95, -83};
Plane Surface(34) = {34};
Curve Loop(35) = {96, 97, -94, 98, 99};
Plane Surface(35) = {35};
Curve Loop(36) = {100, 101, 102, -77, 103, -96};
Plane Surface(36) = {36};
Curve Loop(37) = {104, -85, -78, -102};
Plane Surface(37) = {37};
Curve Loop(38) = {-101, 105, -90, -86, -104};
Plane Surface(38) = {38};
Curve Loop(39) = {-95, -97, -103, -76, -84};
Plane Surface(39) = {39};
Curve Loop(40) = {106, 107, 108, 109};
Plane Surface(40) = {40};
Curve Loop(41) = {110, 111, 112, 113, 114, -106};
Plane Surface(41) = {41};
Curve Loop(42) = {115, 116, 117, -108, 118};
Plane Surface(42) = {42};
Curve Loop(43) = {119, 120, 121, -115};
Plane Surface(43) = {43};
Curve Loop(44) = {-118, -107, -114, 122, -119};
Plane Surface(44) = {44};
Curve Loop(45) = {-113, 123, 124, 125, -120, -122};
Plane Surface(45) = {45};
Curve Loop(46) = {-123, -112, 126};
Plane Surface(46) = {46};
Curve Loop(47) = {-126, -111, 127, 128, -124};
Plane Surface(47) = {47};
Curve Loop(48) = {129, 130, 131, 132};
Plane Surface(48) = {48};
Curve Loop(49) = {133, 134, 135, -129};
Plane Surface(49) = {49};
Curve Loop(50) = {-130, -135, 136, 137, 138};
Plane Surface(50) = {50};
Curve Loop(51) = {139, 140, 141, -137};
Plane Surface(51) = {51};
Curve Loop(52) = {-136, -134, 142, -139};
Plane Surface(52) = {52};
Curve Loop(53) = {143, 144, 145, 146, 147};
Plane Surface(53) = {53};
Curve Loop(54) = {-147, 148, 149, 150, 151};
Plane Surface(54) = {54};
Curve Loop(55) = {152, -144, 153, 154};
Plane Surface(55) = {55};
Curve Loop(56) = {155, 156, 157, 158, 159, -145, -152};
Plane Surface(56) = {56};
Curve Loop(57) = {-159, 160, -148, -146};
Plane Surface(57) = {57};
Curve Loop(58) = {-156, 161, 162};
Plane Surface(58) = {58};
Curve Loop(59) = {-160, -158, 163, 164, -149};
Plane Surface(59) = {59};
Curve Loop(60) = {165, 166, 167, 168, 169};
Plane Surface(60) = {60};
Curve Loop(61) = {170, 171, 172, 173, -165};
Plane Surface(61) = {61};
Curve Loop(62) = {-173, 174, 175, -166};
Plane Surface(62) = {62};
Curve Loop(63) = {176, 177, -167, -175, 178};
Plane Surface(63) = {63};
Curve Loop(64) = {-178, -174, -172, 179, 180};
Plane Surface(64) = {64};
Curve Loop(65) = {181, 182, 183, 184, 185, 186, 187};
Plane Surface(65) = {65};
Curve Loop(66) = {188, 189, 190, 191, -182};
Plane Surface(66) = {66};
Curve Loop(67) = {192, -149, 193, -189};
Plane Surface(67) = {67};
Curve Loop(68) = {-185, 194, 195, 196, 197};
Plane Surface(68) = {68};
Curve Loop(69) = {-197, 198, -186};
Plane Surface(69) = {69};
Curve Loop(70) = {-190, -193, 199, -194, -184, 200};
Plane Surface(70) = {70};
Curve Loop(71) = {-200, -183, -191};
Plane Surface(71) = {71};
Curve Loop(72) = {201, 202, 203, 204};
Plane Surface(72) = {72};
Curve Loop(73) = {205, 206, 207, 208, 209};
Plane Surface(73) = {73};
Curve Loop(74) = {210, 211, -207, 212, 213, -203};
Plane Surface(74) = {74};
Curve Loop(75) = {-202, 214, 215, -210};
Plane Surface(75) = {75};
Curve Loop(76) = {216, 217, 218, -212, -206};
Plane Surface(76) = {76};
Curve Loop(77) = {219, 220, -208, -211, -215};
Plane Surface(77) = {77};
Curve Loop(78) = {221, 222, 223, 224, 225, 226};
Plane Surface(78) = {78};
Curve Loop(79) = {227, 228, -221};
Plane Surface(79) = {79};
Curve Loop(80) = {-226, 229, 230, 231, -227};
Plane Surface(80) = {80};
Curve Loop(81) = {-230, 232, 233, 234, 235};
Plane Surface(81) = {81};
Curve Loop(82) = {-232, -229, -225, 236, 237};
Plane Surface(82) = {82};
Curve Loop(83) = {238, -236, -224, 239};
Plane Surface(83) = {83};
Curve Loop(84) = {240, 241, 242, 243, 244};
Plane Surface(84) = {84};
Curve Loop(85) = {245, 246, 247, -241, 248};
Plane Surface(85) = {85};
Curve Loop(86) = {249, 250, -242, -247, 251};
Plane Surface(86) = {86};
Curve Loop(87) = {252, 253, 254, 255, 256};
Plane Surface(87) = {87};
Curve Loop(88) = {257, 258, 259, -210, 260};
Plane Surface(88) = {88};
Curve Loop(89) = {261, 262, -255, 263, -257};
Plane Surface(89) = {89};
Curve Loop(90) = {-253, 264, 265, -259, 266};
Plane Surface(90) = {90};
Curve Loop(91) = {-266, -258, -263, -254};
Plane Surface(91) = {91};
Curve Loop(92) = {267, 268, 269};
Plane Surface(92) = {92};
Curve Loop(93) = {270, 271, 272, 273, 274, 275, -267};
Plane Surface(93) = {93};
Curve Loop(94) = {276, 277, -272, 278};
Plane Surface(94) = {94};
Curve Loop(95) = {-275, 279, 280, 281, 282, 283, 284, 285, -268};
Plane Surface(95) = {95};
Curve Loop(96) = {286, -279, -274};
Plane Surface(96) = {96};
Curve Loop(97) = {-273, -277, 287, -280, -286};
Plane Surface(97) = {97};
Curve Loop(98) = {288, 289, 290, 291};
Plane Surface(98) = {98};
Curve Loop(99) = {292, 293, 294, -288};
Plane Surface(99) = {99};
Curve Loop(100) = {295, -290, 296, 297, 298};
Plane Surface(100) = {100};
Curve Loop(101) = {299, 300, -296, -289, -294};
Plane Surface(101) = {101};
Curve Loop(102) = {-300, 301, -297};
Plane Surface(102) = {102};
Curve Loop(103) = {302, 303, 304, 305, 306, 307, 308};
Plane Surface(103) = {103};
Curve Loop(104) = {309, 310, 311, 312, -267};
Plane Surface(104) = {104};
Curve Loop(105) = {313, 314, -311, 315, 316, 317, -304, 318};
Plane Surface(105) = {105};
Curve Loop(106) = {-314, 319, -312};
Plane Surface(106) = {106};
Curve Loop(107) = {320, 321, 322, -306, 323, -316};
Plane Surface(107) = {107};
Curve Loop(108) = {-315, -310, 324, 325, -320};
Plane Surface(108) = {108};
Curve Loop(109) = {-305, -317, -323};
Plane Surface(109) = {109};
Curve Loop(110) = {326, 327, 328, 329, 330, 331};
Plane Surface(110) = {110};
Curve Loop(111) = {332, 333, 334, -326};
Plane Surface(111) = {111};
Curve Loop(112) = {335, 336, 337, -327, -334};
Plane Surface(112) = {112};
Curve Loop(113) = {338, -336, 339, 340};
Plane Surface(113) = {113};
Curve Loop(114) = {341, 342, 343, 344};
Plane Surface(114) = {114};
Curve Loop(115) = {345, 346, 347, -341};
Plane Surface(115) = {115};
Curve Loop(116) = {348, -346, 349, 350, 351};
Plane Surface(116) = {116};
Curve Loop(117) = {352, -342, -347, -348};
Plane Surface(117) = {117};
Curve Loop(118) = {353, 354, 355, 356, 357};
Plane Surface(118) = {118};
Curve Loop(119) = {257, -355, 358, 359, 360, 361};
Plane Surface(119) = {119};
Curve Loop(120) = {-358, -354, 362, 363};
Plane Surface(120) = {120};
Curve Loop(121) = {364, 365, 366, 367, 368};
Plane Surface(121) = {121};
Curve Loop(122) = {369, 370, 371, -364};
Plane Surface(122) = {122};
Curve Loop(123) = {-327, -365, -371, 372};
Plane Surface(123) = {123};
Surface Loop(0) = {1, 2, 3, 4, 5, 6, 7, 8};
Volume(0) = {0};
Surface Loop(1) = {9, 10, 11, 12, 13, 1, 14, 15, 16};
Volume(1) = {1};
Surface Loop(2) = {17, 18, 19, 20, 11, 21};
Volume(2) = {2};
Surface Loop(3) = {22, 12, 23, 24, 25, 26, 27, 28, 4, 29};
Volume(3) = {3};
Surface Loop(4) = {30, 31, 32, 22, 33, 14, 34, 20, 35, 36, 37, 38, 39};
Volume(4) = {4};
Surface Loop(5) = {38, 40, 41, 42, 43, 44, 45, 27, 46, 47};
Volume(5) = {5};
Surface Loop(6) = {32, 48, 49, 40, 50, 51, 52};
Volume(6) = {6};
Surface Loop(7) = {53, 35, 54, 55, 56, 16, 57, 6, 58, 59, 29};
Volume(7) = {7};
Surface Loop(8) = {21, 60, 61, 62, 34, 9, 55, 63, 64};
Volume(8) = {8};
Surface Loop(9) = {7, 65, 25, 66, 67, 68, 69, 59, 70, 71};
Volume(9) = {9};
Surface Loop(10) = {54, 67, 26, 36, 47, 72, 73, 74, 75, 76, 77};
Volume(10) = {10};
Surface Loop(11) = {78, 79, 80, 45, 81, 82, 66, 83, 76, 24};
Volume(11) = {11};
Surface Loop(12) = {51, 41, 84, 37, 85, 72, 86, 79};
Volume(12) = {12};
Surface Loop(13) = {30, 52, 87, 88, 89, 85, 90, 91, 75};
Volume(13) = {13};
Surface Loop(14) = {68, 92, 93, 94, 64, 56, 95, 96, 97, 15, 8};
Volume(14) = {14};
Surface Loop(15) = {62, 98, 99, 100, 97, 101, 102};
Volume(15) = {15};
Surface Loop(16) = {103, 93, 57, 70, 104, 102, 105, 106, 73, 107, 108, 83, 109};
Volume(16) = {16};
Surface Loop(17) = {100, 110, 111, 39, 53, 77, 94, 103, 112, 113, 90, 63};
Volume(17) = {17};
Surface Loop(18) = {108, 114, 115, 82, 116, 117, 71};
Volume(18) = {18};
Surface Loop(19) = {46, 86, 74, 113, 118, 107, 88, 119, 114, 120, 78};
Volume(19) = {19};
Surface Loop(20) = {109, 118, 112, 121, 122, 91, 123};
Volume(20) = {20};
Physical Surface("right") = {18, 31, 49, 60, 87, 98, 110, 123};
Physical Surface("left") = {5, 28, 43, 65, 81, 92, 104, 116};
Physical Surface("front") = {96, 101, 105, 111, 115, 120, 121};
Physical Surface("back") = {3, 13, 17, 23, 33, 42, 48};
Physical Surface("top") = {44, 50, 80, 84, 89, 117, 119, 122};
Physical Surface("bottom") = {2, 10, 19, 58, 61, 69, 95, 99, 106};
Physical Surface("grain_boundary") = {1, 4, 6, 7, 8, 9, 11, 12, 14, 15, 16, 20, 21, 22, 24, 25, 26, 27, 29, 30, 32, 34, 35, 36, 37, 38, 39, 40, 41, 45, 46, 47, 51, 52, 53, 54, 55, 56, 57, 59, 62, 63, 64, 66, 67, 68, 70, 71, 72, 73, 74, 75, 76, 77, 78, 79, 82, 83, 85, 86, 88, 90, 91, 93, 94, 97, 100, 102, 103, 107, 108, 109, 112, 113, 114, 118};
Physical Volume(0) = {0};
Physical Volume("Cell 29") = {1};
Physical Volume("Cell 6") = {2};
Physical Volume("Cell 17") = {3};
Physical Volume("Cell 11") = {4};
Physical Volume("Cell 16") = {5};
Physical Volume("Cell 18") = {6};
Physical Volume("Cell 32") = {7};
Physical Volume("Cell 43") = {8};
Physical Volume("Cell 36") = {9};
Physical Volume("Cell 50") = {10};
Physical Volume("Cell 39") = {11};
Physical Volume("Cell 42") = {12};
Physical Volume("Cell 28") = {13};
Physical Volume("Cell 77") = {14};
Physical Volume("Cell 79") = {15};
Physical Volume("Cell 78") = {16};
Physical Volume("Cell 62") = {17};
Physical Volume("Cell 68") = {18};
Physical Volume("Cell 56") = {19};
Physical Volume("Cell 88") = {20};
//+
Coherence;
//+
Show "*";
//+
Show "*";
//+
Hide {
  Point{0}; Point{27}; Point{73}; Point{88}; Point{208}; Point{215}; Point{249}; Point{266}; Curve{5}; Curve{6}; Curve{11}; Curve{25}; Curve{40}; Curve{43}; Curve{44}; Curve{58}; Curve{81}; Curve{115}; Curve{118}; Curve{119}; Curve{129}; Curve{130}; Curve{135}; Curve{165}; Curve{186}; Curve{230}; Curve{255}; Curve{268}; Curve{279}; Curve{288}; Curve{289}; Curve{294}; Curve{311}; Curve{312}; Curve{314}; Curve{326}; Curve{346}; Curve{347}; Curve{348}; Curve{358}; Curve{364}; Curve{365}; Curve{371}; Surface{2}; Surface{3}; Surface{5}; Surface{10}; Surface{13}; Surface{17}; Surface{18}; Surface{19}; Surface{23}; Surface{28}; Surface{31}; Surface{33}; Surface{42}; Surface{43}; Surface{44}; Surface{48}; Surface{49}; Surface{50}; Surface{58}; Surface{60}; Surface{61}; Surface{65}; Surface{69}; Surface{80}; Surface{81}; Surface{84}; Surface{87}; Surface{89}; Surface{92}; Surface{95}; Surface{96}; Surface{98}; Surface{99}; Surface{101}; Surface{104}; Surface{105}; Surface{106}; Surface{110}; Surface{111}; Surface{115}; Surface{116}; Surface{117}; Surface{119}; Surface{120}; Surface{121}; Surface{122}; Surface{123}; Volume{0}; Volume{1}; Volume{2}; Volume{3}; Volume{4}; Volume{5}; Volume{6}; Volume{7}; Volume{8}; Volume{9}; Volume{10}; Volume{11}; Volume{12}; Volume{13}; Volume{14}; Volume{15}; Volume{16}; Volume{17}; Volume{18}; Volume{19}; Volume{20}; 
}
//+
Show "*";
